<svg version="1" xmlns="http://www.w3.org/2000/svg" width="933.333" height="933.333" viewBox="0 0 700.000000 700.000000"><path d="M292.4 33.5c-94.4 17.3-176.3 75.8-223 159.2-18.9 33.7-31.5 71-37.5 110.3-2.2 13.9-2.4 18.8-2.4 47 .1 27.1.4 33.4 2.2 45 6.7 42.5 20.3 81.3 40.4 115.7 44.5 75.7 117.7 130.2 201.9 150.2 10.8 2.6 28.9 6.1 31.3 6.1.4 0 .6-6.2.5-13.7l-.3-13.8-13-2.6c-48.5-9.8-90.1-29.3-128.5-60.2-10.3-8.3-35.1-33.4-43.4-43.7-34.8-43.8-55.7-93.8-62.8-150-2.2-17.3-1.6-57.4 1.1-75 9.7-64.6 37.9-120.8 83.1-166 22.9-22.9 48.7-41.4 77.4-55.5 24.9-12.2 47.3-19.9 71.4-24.5 5.9-1.1 11.7-2.3 13-2.6 2.1-.4 2.2-.7 2.2-13.9V32l-3.2.1c-1.8.1-6.5.7-10.4 1.4zM417 75v39h27V93.5c0-19.4.1-20.5 1.9-20.5 1 0 7.4 2.3 14.2 5.1C533.2 108 592.2 167.3 621.3 240c14.4 36.1 20.8 69.2 20.8 108.5 0 21.9-.8 32.2-4.1 51.6-14.8 87.1-70.2 163.6-149.7 206.9-11.3 6.2-36 17.1-42 18.6l-2.3.6V248h-27v207.6c0 165.7.3 207.5 1.3 207.1.6-.2 6.4-1.9 12.7-3.7 49.9-14 90.8-35.5 127.4-67.1 98.1-84.8 135.5-217.8 95.9-341.4-28.1-87.7-96.2-161.5-181.8-197-13.8-5.8-50.4-17.5-54.4-17.5-.8 0-1.1 11.8-1.1 39z"/></svg>